<?xml version="1.0" standalone="no"?>
<!DOCTYPE svg PUBLIC "-//W3C//DTD SVG 20010904//EN"
 "http://www.w3.org/TR/2001/REC-SVG-20010904/DTD/svg10.dtd">
<svg version="1.0" xmlns="http://www.w3.org/2000/svg"
 width="649.000000pt" height="649.000000pt" viewBox="0 0 649.000000 649.000000"
 preserveAspectRatio="xMidYMid meet">
<metadata>
Created by potrace 1.14, written by Peter Selinger 2001-2017
</metadata>
<g transform="translate(0.000000,649.000000) scale(0.100000,-0.100000)"
fill="#000000" stroke="none">
<path d="M3320 6074 c-18 -13 -36 -28 -40 -34 -4 -7 -10 -11 -14 -11 -7 2 -29
-12 -161 -98 -110 -72 -129 -84 -162 -102 -13 -7 -23 -16 -23 -21 0 -4 -6 -8
-14 -8 -8 0 -16 -3 -18 -7 -1 -5 -23 -21 -47 -38 -24 -16 -45 -35 -48 -42 -3
-7 -11 -13 -18 -13 -7 0 -30 -16 -49 -35 -20 -19 -39 -35 -42 -35 -3 0 -12 -7
-20 -15 -12 -12 -42 -15 -137 -15 -122 0 -123 0 -155 -29 -17 -17 -32 -28 -32
-25 0 4 -14 -8 -66 -53 -14 -13 -29 -23 -33 -23 -5 0 -12 -7 -15 -16 -3 -8
-10 -13 -14 -10 -5 3 -14 -5 -20 -17 -11 -22 -55 -162 -57 -182 -1 -5 -9 -35
-19 -65 -10 -30 -20 -64 -22 -75 -2 -11 -7 -36 -13 -55 -5 -19 -20 -78 -34
-130 -39 -149 -38 -143 -19 -129 9 7 22 18 27 24 6 6 28 22 50 35 22 13 46 30
53 37 7 7 20 13 28 13 8 0 14 5 14 10 0 6 5 10 11 10 6 0 17 6 24 13 33 29 45
37 55 37 5 0 10 5 10 10 0 6 6 10 13 10 24 0 50 38 113 163 57 115 65 125 125
168 35 26 67 44 72 42 4 -2 10 3 13 11 3 9 10 16 14 16 10 0 188 117 265 173
33 25 71 50 85 57 14 7 34 23 45 35 12 12 26 20 32 18 6 -2 17 2 24 9 39 37
122 68 133 50 2 -4 41 -7 85 -7 45 0 81 -3 81 -6 0 -7 37 -10 122 -13 32 0 58
-3 58 -6 0 -6 30 -8 103 -10 26 0 47 -4 47 -9 0 -4 11 -7 25 -5 14 1 40 -2 58
-7 18 -5 52 -12 77 -14 25 -3 59 -7 75 -9 17 -2 53 -7 80 -10 28 -4 68 -9 89
-12 21 -4 54 -8 72 -9 17 -2 57 -6 88 -10 40 -5 56 -4 56 4 0 7 -4 10 -9 7 -4
-3 -45 14 -89 38 -45 24 -84 41 -87 38 -3 -3 -5 0 -5 7 0 7 -4 9 -10 6 -5 -3
-10 -1 -10 4 0 6 -5 11 -11 11 -7 0 -62 24 -123 54 -151 73 -190 90 -198 88
-5 -1 -8 3 -8 10 0 6 -3 8 -6 5 -4 -4 -19 2 -33 11 -30 21 -143 72 -159 72 -6
0 -12 4 -14 8 -2 7 -108 60 -128 64 -3 1 -11 8 -18 15 -8 7 -18 11 -23 8 -5
-4 -9 -1 -9 4 0 6 -6 11 -14 11 -8 0 -21 6 -28 14 -12 11 -19 9 -48 -10z"/>
<path d="M3187 5604 c-15 -8 -27 -19 -27 -24 0 -6 -5 -10 -11 -10 -6 0 -16 -6
-24 -12 -27 -26 -55 -48 -55 -42 0 3 -20 -11 -44 -30 -23 -20 -47 -36 -52 -36
-5 0 -17 -9 -27 -20 -9 -11 -24 -20 -32 -20 -8 0 -15 -5 -15 -12 0 -6 -3 -9
-6 -5 -6 6 -21 -4 -54 -37 -11 -11 -20 -16 -20 -12 0 6 -8 1 -49 -34 -10 -8
-24 -16 -32 -18 -8 -2 -21 -11 -29 -20 -8 -10 -18 -18 -22 -18 -4 1 -15 -6
-25 -14 -14 -12 -83 -63 -101 -75 -1 -1 -4 -11 -7 -23 -2 -11 -8 -28 -13 -38
-6 -11 -23 -50 -39 -88 -21 -48 -38 -73 -59 -85 -16 -9 -31 -19 -34 -22 -10
-12 -150 -99 -160 -99 -6 0 -10 -5 -10 -12 0 -6 -3 -9 -6 -5 -3 3 -14 -2 -24
-11 -36 -33 -49 -42 -59 -42 -10 0 -36 -19 -67 -48 -7 -7 -15 -11 -16 -10 -2
2 -21 -8 -43 -22 -22 -14 -44 -27 -50 -29 -5 -2 -18 -13 -27 -24 -10 -11 -18
-16 -18 -12 0 5 -10 -1 -22 -12 -13 -11 -37 -28 -55 -37 -45 -22 -70 -52 -77
-89 -8 -42 -13 -64 -25 -107 -15 -51 -39 -151 -45 -180 -2 -14 -7 -38 -12 -54
l-7 -30 31 22 c16 12 35 22 41 22 6 0 11 4 11 8 0 5 12 15 28 23 36 19 85 52
94 64 4 6 8 7 8 3 0 -4 36 17 80 47 45 30 83 55 86 55 7 0 65 41 98 70 16 14
25 18 20 10 -4 -8 10 -1 31 16 22 17 47 34 55 37 8 4 33 18 55 32 22 14 47 28
55 32 8 3 19 12 23 20 4 7 12 13 17 13 5 0 44 23 86 50 42 28 83 50 90 50 8 0
14 3 14 8 0 4 26 23 58 41 31 19 59 37 62 41 3 3 19 12 37 19 17 7 39 21 49
32 9 10 21 19 26 19 5 0 40 21 79 48 39 26 78 52 87 57 9 6 49 30 87 53 39 24
79 48 90 55 11 7 23 17 27 22 5 7 8 7 8 0 0 -5 4 -5 8 2 13 20 112 82 117 73
3 -4 16 -7 30 -5 14 1 25 -1 25 -4 0 -4 24 -15 53 -26 28 -10 66 -25 82 -33
17 -9 35 -17 40 -18 6 -1 52 -20 103 -43 51 -22 95 -40 97 -41 3 0 24 -10 47
-20 24 -11 48 -20 54 -20 20 0 35 -27 39 -67 2 -21 8 -72 14 -113 6 -41 13
-97 16 -125 3 -27 13 -58 23 -68 9 -11 16 -21 15 -23 -5 -7 32 -84 39 -84 5 0
8 -6 8 -13 0 -7 29 -72 64 -144 63 -128 65 -131 103 -138 21 -5 43 -10 48 -11
6 -2 21 -5 35 -8 14 -3 36 -8 50 -11 14 -3 45 -8 70 -12 25 -3 47 -8 50 -12 3
-4 12 -6 20 -6 8 1 24 -3 35 -8 19 -10 19 -9 2 17 -9 14 -24 37 -33 51 -9 14
-13 25 -9 25 5 0 1 8 -7 18 -18 20 -118 223 -118 239 0 6 -3 13 -8 15 -9 4
-102 196 -102 211 0 7 24 76 53 154 52 136 53 142 38 170 -19 34 -71 105 -86
115 -5 4 -10 11 -10 15 0 5 -25 42 -55 83 -73 101 -74 112 -8 149 29 16 59 35
66 41 6 6 12 7 12 3 0 -4 5 0 11 10 6 9 14 15 20 12 5 -4 9 -2 9 3 0 5 10 12
22 15 30 8 20 16 -23 18 -18 2 -38 5 -44 8 -12 7 -29 10 -80 15 -22 2 -48 7
-58 11 -10 4 -20 5 -23 2 -4 -3 -18 -1 -33 5 -14 5 -44 11 -66 13 -22 2 -69 8
-105 15 -36 7 -82 12 -102 12 -21 0 -38 4 -38 8 0 5 -12 7 -27 6 -16 -2 -32
-1 -38 2 -5 3 -19 8 -30 9 -50 8 -123 16 -155 17 -19 1 -38 5 -41 9 -3 4 -21
10 -40 12 -19 3 -59 10 -89 16 -83 18 -93 18 -123 3z"/>
<path d="M3521 4681 c-50 -48 -87 -91 -84 -95 3 -3 1 -6 -6 -6 -7 0 -60 -47
-117 -105 -58 -58 -107 -105 -110 -105 -2 0 -60 -56 -129 -123 -69 -68 -125
-122 -125 -121 0 2 -23 -19 -52 -46 -29 -28 -60 -53 -70 -56 -10 -3 -18 -10
-18 -15 0 -5 -18 -27 -40 -48 -22 -21 -40 -35 -40 -32 0 3 -25 -21 -55 -53
-30 -31 -55 -54 -55 -50 0 4 -10 -6 -22 -22 -13 -16 -26 -30 -30 -32 -4 -2
-32 -27 -61 -55 -29 -29 -78 -73 -108 -99 -30 -25 -87 -77 -126 -115 -205
-198 -240 -229 -297 -258 -21 -11 -49 -30 -62 -42 -14 -13 -28 -23 -31 -23 -7
0 -105 -61 -113 -70 -3 -3 -30 -21 -60 -40 -30 -19 -64 -43 -74 -52 -11 -10
-28 -20 -38 -24 -36 -11 -19 -29 30 -31 81 -2 122 -19 122 -49 0 -21 95 -208
113 -223 9 -7 32 -13 51 -14 20 -1 36 -6 36 -10 0 -5 5 -5 10 -2 5 3 15 3 22
-1 7 -4 21 -8 32 -10 35 -3 98 -15 120 -24 12 -4 31 -6 43 -4 12 2 25 -1 28
-6 4 -6 11 -8 16 -5 5 4 9 2 9 -2 0 -8 14 -11 75 -17 11 -1 26 -5 34 -10 11
-7 13 -2 8 25 -4 19 -9 70 -12 114 -5 74 -12 133 -21 195 -2 14 -7 54 -11 88
l-6 64 75 71 c42 40 124 117 184 172 60 55 118 110 129 122 19 19 55 142 55
184 0 32 34 61 73 62 20 1 37 4 37 8 0 3 18 5 41 3 44 -3 48 0 179 126 106
103 313 298 364 345 38 34 59 62 67 90 9 33 43 202 53 265 1 8 6 29 10 45 4
17 16 65 26 108 11 43 22 82 25 87 15 24 -9 4 -94 -79z"/>
<path d="M1643 4418 c-4 -7 -37 -33 -73 -57 -36 -24 -75 -53 -87 -64 -13 -11
-23 -17 -23 -13 0 4 -7 0 -16 -8 -8 -9 -20 -14 -25 -11 -5 4 -9 2 -9 -4 0 -6
-19 -20 -42 -32 -24 -12 -45 -25 -48 -29 -3 -4 -30 -22 -60 -41 -30 -18 -58
-38 -62 -43 -5 -7 -8 -7 -8 -1 0 6 -6 3 -13 -6 -7 -8 -31 -26 -54 -39 -24 -13
-43 -28 -43 -32 0 -5 -5 -6 -10 -3 -6 3 -13 -1 -16 -10 -4 -9 -13 -14 -20 -11
-8 3 -14 1 -14 -4 0 -5 -18 -19 -40 -31 -22 -13 -40 -27 -40 -31 0 -5 -4 -7
-9 -4 -5 3 -15 -1 -22 -10 -7 -8 -30 -24 -51 -35 -21 -11 -38 -24 -38 -30 0
-6 -4 -7 -10 -4 -5 3 -10 1 -10 -5 0 -6 -4 -9 -8 -6 -5 3 -21 -6 -36 -19 -16
-14 -37 -27 -47 -30 -11 -4 -19 -11 -19 -16 0 -6 -4 -8 -8 -5 -5 3 -18 -3 -29
-14 -11 -10 -46 -33 -77 -50 -31 -18 -56 -37 -56 -43 0 -6 -3 -8 -6 -4 -10 10
-55 -36 -87 -90 -18 -29 -35 -53 -39 -53 -5 0 -8 -5 -8 -11 0 -6 -9 -23 -20
-37 -78 -102 -100 -132 -100 -138 0 -3 -11 -20 -25 -38 -38 -46 -145 -195
-145 -201 0 -3 -4 -11 -10 -18 -50 -61 -62 -79 -57 -83 3 -3 15 4 26 15 12 12
21 18 21 14 0 -5 4 -3 8 2 4 6 33 26 65 45 31 19 57 38 57 43 0 4 5 5 10 2 6
-3 10 -1 10 5 0 6 4 8 10 5 5 -3 10 -2 10 2 0 5 15 17 33 28 17 10 35 23 39
29 4 6 11 11 15 11 14 0 113 67 113 76 0 4 7 6 15 3 8 -4 17 1 21 10 3 9 10
13 15 10 5 -3 9 0 9 6 0 6 4 8 10 5 5 -3 10 -2 10 2 0 5 17 17 37 28 20 11 51
31 69 45 18 14 63 43 100 65 37 22 81 52 98 66 17 14 36 28 41 30 6 2 51 31
100 63 50 33 124 81 165 108 41 26 80 52 86 57 7 6 15 7 18 4 3 -4 6 -1 6 4 0
6 23 25 51 43 28 17 56 35 62 41 7 5 21 17 33 27 18 15 54 79 54 96 0 7 36 90
50 116 15 29 77 -4 85 -46 6 -31 7 -31 15 6 5 19 11 46 15 60 4 14 11 50 16
80 13 74 16 87 27 140 9 43 12 80 6 80 -2 0 -7 -6 -11 -12z"/>
<path d="M4079 4066 c-4 -5 4 -89 15 -156 2 -8 6 -42 11 -75 4 -33 9 -69 11
-80 2 -11 7 -44 10 -74 3 -30 7 -63 9 -73 4 -21 -14 -68 -25 -68 -4 0 -30 -21
-58 -47 -28 -27 -87 -82 -132 -123 -203 -186 -188 -168 -206 -245 -31 -135
-35 -145 -55 -155 -18 -10 -76 -20 -139 -23 -27 -1 -38 -9 -110 -77 -26 -25
-107 -101 -180 -170 -270 -254 -291 -276 -295 -300 -2 -14 -11 -52 -20 -85 -9
-33 -18 -69 -20 -80 -15 -85 -48 -243 -52 -255 -14 -35 -28 -107 -20 -100 71
63 248 232 379 361 92 91 168 163 168 160 0 -2 11 11 25 30 14 19 29 34 32 34
3 0 32 25 64 55 106 100 160 150 164 150 2 0 17 12 32 28 16 15 76 70 132 122
57 52 136 127 176 165 41 39 124 117 186 175 61 58 132 125 158 149 25 25 78
65 116 90 39 24 73 49 77 55 5 7 8 7 8 1 0 -6 3 -6 8 0 4 6 40 32 80 59 39 26
72 52 72 57 0 5 3 8 8 7 8 -3 63 32 73 45 3 5 9 8 13 8 19 -3 27 0 21 8 -3 5
4 13 16 16 11 4 19 9 16 11 -8 8 -51 16 -89 16 -51 0 -73 26 -128 145 -24 54
-48 100 -52 101 -5 2 -6 8 -2 13 6 10 -5 15 -46 24 -14 2 -51 11 -82 19 -32 8
-58 11 -58 8 0 -3 -5 -1 -11 5 -6 6 -17 9 -24 7 -7 -3 -16 -1 -20 5 -3 6 -21
11 -40 11 -19 0 -37 5 -40 11 -4 6 -13 8 -21 5 -7 -3 -16 -1 -19 4 -3 5 -13 8
-23 8 -17 -1 -48 5 -87 17 -11 3 -23 4 -26 1z"/>
<path d="M6401 3633 c-5 -10 -12 -17 -15 -15 -13 5 -23 1 -43 -17 -11 -10 -34
-26 -51 -35 -18 -9 -32 -21 -32 -27 0 -6 -4 -8 -9 -4 -5 3 -16 -1 -24 -9 -8
-8 -17 -12 -21 -9 -3 4 -6 1 -6 -5 0 -6 -18 -21 -40 -32 -22 -11 -40 -25 -40
-31 0 -6 -4 -7 -10 -4 -5 3 -10 1 -10 -5 0 -6 -4 -8 -10 -5 -5 3 -10 1 -10 -5
0 -6 -4 -8 -10 -5 -5 3 -10 2 -10 -3 0 -10 -101 -77 -112 -74 -5 1 -8 -2 -8
-6 0 -5 -22 -21 -50 -36 -27 -15 -50 -32 -50 -37 0 -6 -4 -8 -9 -4 -6 3 -13
-1 -18 -8 -4 -7 -23 -22 -40 -32 -18 -11 -33 -23 -33 -28 0 -4 -5 -5 -10 -2
-6 3 -13 -1 -16 -9 -3 -9 -10 -13 -15 -10 -5 3 -9 0 -9 -5 0 -6 -6 -11 -14
-11 -8 0 -31 -15 -50 -34 -20 -18 -38 -31 -41 -28 -3 3 -5 0 -5 -7 0 -7 -4
-10 -9 -7 -4 3 -16 -3 -26 -14 -10 -11 -22 -20 -28 -20 -5 0 -93 -55 -195
-123 -103 -68 -202 -132 -219 -142 -18 -11 -33 -24 -33 -29 0 -5 -3 -7 -6 -3
-3 3 -14 -2 -24 -11 -23 -22 -51 -78 -43 -86 4 -3 1 -6 -6 -6 -7 0 -9 -4 -6
-10 3 -5 1 -10 -4 -10 -6 0 -10 -3 -9 -7 7 -19 -26 -92 -43 -96 -24 -6 -55 17
-63 48 -4 14 -11 25 -16 25 -10 0 -14 -13 -25 -85 -13 -77 -17 -100 -19 -120
-1 -11 -4 -24 -8 -30 -3 -5 -9 -26 -14 -45 -4 -19 -9 -39 -11 -45 -1 -5 -6
-23 -9 -38 l-6 -28 38 23 c43 24 99 64 128 90 11 10 28 20 38 24 10 3 18 10
18 15 0 6 5 7 10 4 6 -3 13 1 16 9 3 9 10 14 14 11 5 -3 14 0 22 7 21 21 97
68 108 68 5 0 10 5 10 10 0 6 5 10 10 10 10 0 180 107 206 129 6 5 24 16 40
24 16 8 40 25 53 36 13 12 30 21 36 21 7 0 16 7 19 16 4 9 9 14 12 11 4 -3 11
-1 18 4 48 41 60 48 67 43 5 -3 9 -1 9 5 0 6 13 17 29 26 16 8 35 21 43 28 8
8 28 22 46 31 18 9 32 20 32 24 0 5 15 16 33 25 63 33 100 61 147 109 45 47
80 93 80 106 0 5 9 17 20 27 11 10 20 24 20 32 0 7 5 13 10 13 6 0 10 5 10 12
0 7 12 24 26 39 15 15 32 37 38 47 20 36 111 164 139 197 15 18 27 37 27 43 0
6 3 12 8 14 14 6 88 108 78 108 -3 0 -9 -8 -15 -17z"/>
<path d="M1920 2563 c0 -5 14 -31 32 -59 61 -94 259 -498 254 -519 -4 -19 -62
-180 -85 -238 -18 -46 -13 -73 22 -115 17 -22 41 -55 52 -73 11 -18 27 -43 35
-55 8 -11 29 -40 45 -64 17 -24 34 -48 39 -55 9 -12 -1 -72 -11 -62 -3 3 -12
-1 -20 -9 -8 -8 -19 -12 -24 -9 -5 4 -9 2 -9 -2 0 -5 -36 -27 -80 -49 -44 -21
-80 -42 -80 -46 0 -5 18 -9 40 -9 22 -1 43 -2 48 -4 4 -1 18 -5 32 -8 14 -4
45 -8 70 -10 25 -1 50 -5 55 -8 6 -4 26 -7 45 -7 19 -1 46 -4 60 -7 14 -3 47
-8 75 -10 27 -3 63 -9 80 -15 16 -5 53 -11 80 -14 28 -3 61 -7 75 -11 14 -3
37 -6 53 -7 15 -1 27 -5 27 -10 0 -5 4 -7 9 -4 5 3 31 1 57 -5 27 -5 65 -12
84 -14 19 -2 60 -8 90 -14 140 -28 170 -25 230 26 56 48 130 102 130 96 0 -5
4 -3 8 2 11 15 70 55 82 55 5 0 10 5 10 10 0 6 5 10 10 10 11 0 24 10 61 43
10 9 21 17 24 17 2 0 21 11 42 25 21 14 46 31 57 38 10 6 25 18 32 25 8 7 14
11 14 7 0 -7 14 4 71 56 21 20 39 41 39 47 0 6 16 51 36 100 29 71 43 93 73
113 20 13 38 26 41 30 3 3 34 23 70 44 36 21 68 43 71 48 3 5 9 7 12 5 4 -1
15 4 25 13 10 9 37 26 60 39 23 13 42 28 42 32 0 5 4 7 9 4 5 -4 11 -3 13 1 3
9 84 63 93 63 3 0 32 18 65 39 32 22 68 42 79 46 12 3 21 11 21 17 0 6 3 9 6
5 3 -3 17 4 30 16 17 16 28 44 38 92 30 149 47 222 67 278 12 32 19 61 16 63
-6 6 -110 -65 -115 -78 -2 -4 -10 -8 -17 -8 -8 0 -20 -6 -27 -13 -7 -6 -42
-29 -78 -51 -77 -46 -143 -89 -150 -97 -3 -3 -20 -15 -39 -25 -54 -30 -123
-75 -131 -85 -3 -3 -34 -21 -70 -41 -80 -43 -212 -128 -222 -142 -4 -6 -8 -7
-8 -3 0 5 -13 -1 -29 -12 -16 -12 -32 -21 -36 -21 -3 0 -21 -11 -39 -25 -18
-14 -38 -25 -44 -25 -7 0 -12 -3 -12 -8 0 -4 -20 -18 -45 -32 -25 -14 -45 -28
-45 -32 0 -5 -3 -7 -7 -6 -8 2 -34 -13 -188 -114 -214 -139 -268 -173 -315
-199 -56 -32 -40 -34 -195 31 -21 9 -45 16 -57 19 -5 1 -23 10 -41 20 -18 10
-48 22 -65 26 -18 3 -32 11 -32 16 0 5 -8 9 -18 9 -10 0 -22 3 -26 8 -4 4 -12
8 -17 8 -5 1 -11 3 -14 4 -3 1 -8 3 -12 4 -8 2 -70 30 -103 46 -25 12 -38 51
-44 136 -14 190 -19 208 -110 383 -46 90 -89 167 -96 171 -6 4 -11 11 -10 15
5 16 -41 64 -55 59 -8 -4 -15 -2 -15 3 0 6 -12 9 -27 8 -16 -1 -33 2 -39 7 -7
5 -16 8 -20 6 -5 -1 -25 3 -44 10 -19 6 -46 13 -60 16 -28 6 -54 12 -87 22
-13 3 -23 2 -23 -3z"/>
<path d="M4413 1860 c-10 -11 -21 -20 -26 -20 -8 0 -21 -11 -77 -62 -10 -9
-21 -14 -24 -10 -3 3 -6 0 -6 -7 0 -7 -4 -10 -9 -6 -6 3 -13 -1 -18 -8 -4 -8
-29 -26 -55 -41 -27 -16 -48 -32 -48 -37 0 -5 -6 -9 -12 -9 -30 -1 -70 -53
-123 -160 -60 -121 -76 -140 -159 -192 -99 -61 -171 -108 -191 -124 -11 -8
-44 -29 -72 -45 -29 -17 -53 -35 -53 -40 0 -5 -6 -9 -14 -9 -8 0 -16 -4 -18
-9 -1 -4 -35 -29 -74 -54 -40 -25 -75 -50 -79 -56 -3 -6 -10 -9 -14 -7 -4 3
-18 -4 -29 -15 -12 -11 -22 -17 -22 -14 0 4 -6 0 -13 -7 -15 -14 -128 -16
-189 -3 -18 4 -49 9 -68 10 -97 7 -199 17 -230 21 -19 3 -60 7 -91 8 -31 2
-60 5 -65 8 -10 6 -82 17 -157 24 -27 2 -57 9 -68 14 -13 8 -19 7 -19 0 0 -7
-6 -8 -18 -1 -11 6 -27 10 -38 9 -10 0 -57 5 -104 11 -104 14 -140 14 -140 1
0 -5 7 -7 15 -4 8 4 15 1 15 -6 0 -6 5 -8 10 -5 6 3 10 1 10 -5 0 -6 5 -8 10
-5 6 3 10 1 10 -6 0 -7 3 -9 7 -6 3 4 13 1 22 -7 9 -7 37 -21 64 -31 26 -10
47 -22 47 -26 0 -5 5 -9 11 -9 18 0 149 -63 149 -72 0 -4 8 -8 18 -8 10 0 22
-3 26 -8 4 -4 11 -7 14 -7 4 0 43 -18 87 -40 44 -21 82 -40 85 -40 3 -1 23
-10 45 -22 22 -11 45 -22 50 -23 6 -1 16 -6 23 -12 6 -6 12 -7 12 -2 0 5 4 4
8 -3 7 -11 119 -64 126 -60 2 1 12 -5 22 -14 11 -9 38 -25 62 -37 l42 -22 43
27 c23 14 44 29 47 32 3 3 22 15 43 26 20 11 37 23 37 28 0 4 5 5 10 2 6 -3
10 -2 10 4 0 6 11 13 25 17 14 3 25 9 25 13 0 4 13 15 30 24 16 10 36 25 45
33 8 9 21 17 29 18 7 1 21 9 30 19 10 9 21 17 25 17 4 0 21 11 36 24 16 14 32
23 36 20 5 -2 12 4 18 14 5 10 29 32 53 48 23 16 51 37 61 47 10 10 22 15 26
12 5 -2 8 3 7 13 0 9 5 16 12 15 6 -2 12 2 12 7 0 6 5 10 11 10 6 0 17 7 26
16 13 13 34 14 126 9 l110 -5 56 37 c31 21 84 60 118 86 63 50 82 85 98 177 3
19 8 43 11 52 3 9 7 25 9 35 14 63 76 295 89 331 8 23 12 42 8 42 -4 0 -2 4 3
8 10 7 36 72 29 72 -2 0 -12 -9 -21 -20z"/>
<path d="M2060 1050 c0 -5 5 -10 11 -10 5 0 7 5 4 10 -3 6 -8 10 -11 10 -2 0
-4 -4 -4 -10z"/>
</g>
</svg>
